<svg width="256" height="256" viewBox="0 0 80 80" fill="none" xmlns="http://www.w3.org/2000/svg">
<path fill-rule="evenodd" clip-rule="evenodd" d="M64.2735 0C72.959 0 80 7.04099 80 15.7265V64.2735C80 72.959 72.959 80 64.2735 80H15.7265C7.04099 80 1.37671e-07 72.959 0 64.2735V15.7265C0 7.04099 7.04099 1.37662e-07 15.7265 0H64.2735ZM56.7521 9.57265C49.1995 9.57265 43.0769 15.6953 43.0769 23.2479C43.0769 30.8005 49.1995 36.9231 56.7521 36.9231C64.3048 36.9231 70.4274 30.8005 70.4274 23.2479C70.4274 15.6953 64.3048 9.57265 56.7521 9.57265Z" fill="#DB4D12"/>
</svg>
