<svg width="531" height="88" viewBox="0 0 531 88" fill="none" xmlns="http://www.w3.org/2000/svg">
<path d="M507.59 72.3441C504.198 72.3441 501.126 72.0241 498.374 71.3841C495.622 70.7441 493.254 69.8161 491.27 68.6001C489.286 67.3841 487.686 65.9441 486.47 64.2801C485.254 62.5521 484.454 60.6321 484.07 58.5201L494.63 54.2001C494.886 55.6081 495.59 56.9201 496.742 58.1361C497.894 59.3521 499.43 60.3441 501.35 61.1121C503.334 61.8161 505.702 62.1681 508.454 62.1681C511.398 62.1681 513.67 61.7521 515.27 60.9201C516.87 60.0241 517.67 58.7761 517.67 57.1761C517.67 55.9601 517.222 55.0001 516.326 54.2961C515.43 53.5921 514.118 52.9841 512.39 52.4721C510.662 51.9601 508.582 51.4801 506.15 51.0321C503.782 50.4561 501.35 49.8481 498.854 49.2081C496.422 48.5681 494.15 47.6721 492.038 46.5201C489.99 45.3681 488.294 43.8641 486.95 42.0081C485.67 40.0881 485.03 37.6561 485.03 34.7121C485.03 31.6401 485.862 28.9521 487.526 26.6481C489.19 24.3441 491.622 22.5521 494.822 21.2721C498.022 19.9281 501.926 19.2561 506.534 19.2561C510.694 19.2561 514.342 19.8321 517.478 20.9841C520.614 22.0721 523.174 23.6721 525.158 25.7841C527.206 27.8321 528.582 30.2961 529.286 33.1761L518.054 36.9201C517.798 35.3841 517.158 34.0401 516.134 32.8881C515.174 31.7361 513.862 30.8721 512.198 30.2961C510.598 29.7201 508.71 29.4321 506.534 29.4321C503.782 29.4321 501.638 29.8801 500.102 30.7761C498.63 31.6721 497.894 32.8561 497.894 34.3281C497.894 35.5441 498.374 36.5361 499.334 37.3041C500.358 38.0721 501.766 38.7121 503.558 39.2241C505.35 39.6721 507.462 40.1521 509.894 40.6641C512.454 41.1761 514.95 41.7841 517.382 42.4881C519.814 43.1281 521.99 43.9921 523.91 45.0801C525.894 46.1681 527.462 47.6081 528.614 49.4001C529.766 51.1921 530.342 53.4961 530.342 56.3121C530.342 59.6401 529.446 62.5201 527.654 64.9521C525.862 67.3201 523.27 69.1441 519.878 70.4241C516.486 71.7041 512.39 72.3441 507.59 72.3441Z" fill="white"/>
<path d="M455.371 72.3441C451.979 72.3441 448.907 72.0241 446.155 71.3841C443.403 70.7441 441.035 69.8161 439.051 68.6001C437.067 67.3841 435.467 65.9441 434.251 64.2801C433.035 62.5521 432.235 60.6321 431.851 58.5201L442.411 54.2001C442.667 55.6081 443.371 56.9201 444.523 58.1361C445.675 59.3521 447.211 60.3441 449.131 61.1121C451.115 61.8161 453.483 62.1681 456.235 62.1681C459.179 62.1681 461.451 61.7521 463.051 60.9201C464.651 60.0241 465.451 58.7761 465.451 57.1761C465.451 55.9601 465.003 55.0001 464.107 54.2961C463.211 53.5921 461.899 52.9841 460.171 52.4721C458.443 51.9601 456.363 51.4801 453.931 51.0321C451.563 50.4561 449.131 49.8481 446.635 49.2081C444.203 48.5681 441.931 47.6721 439.819 46.5201C437.771 45.3681 436.075 43.8641 434.731 42.0081C433.451 40.0881 432.811 37.6561 432.811 34.7121C432.811 31.6401 433.643 28.9521 435.307 26.6481C436.971 24.3441 439.403 22.5521 442.603 21.2721C445.803 19.9281 449.707 19.2561 454.315 19.2561C458.475 19.2561 462.123 19.8321 465.259 20.9841C468.395 22.0721 470.955 23.6721 472.939 25.7841C474.987 27.8321 476.363 30.2961 477.067 33.1761L465.835 36.9201C465.579 35.3841 464.939 34.0401 463.915 32.8881C462.955 31.7361 461.643 30.8721 459.979 30.2961C458.379 29.7201 456.491 29.4321 454.315 29.4321C451.563 29.4321 449.419 29.8801 447.883 30.7761C446.411 31.6721 445.675 32.8561 445.675 34.3281C445.675 35.5441 446.155 36.5361 447.115 37.3041C448.139 38.0721 449.547 38.7121 451.339 39.2241C453.131 39.6721 455.243 40.1521 457.675 40.6641C460.235 41.1761 462.731 41.7841 465.163 42.4881C467.595 43.1281 469.771 43.9921 471.691 45.0801C473.675 46.1681 475.243 47.6081 476.395 49.4001C477.547 51.1921 478.123 53.4961 478.123 56.3121C478.123 59.6401 477.227 62.5201 475.435 64.9521C473.643 67.3201 471.051 69.1441 467.659 70.4241C464.267 71.7041 460.171 72.3441 455.371 72.3441Z" fill="white"/>
<path d="M390.863 72.3441C388.047 72.3441 385.551 71.8001 383.375 70.7121C381.199 69.5601 379.503 67.9281 378.287 65.8161C377.071 63.7041 376.463 61.0801 376.463 57.9441C376.463 55.1921 376.975 52.8881 377.999 51.0321C379.087 49.1761 380.655 47.6721 382.703 46.5201C384.751 45.3681 387.279 44.4081 390.287 43.6401C393.295 42.8721 396.719 42.2001 400.559 41.6241C402.607 41.3041 404.271 41.0161 405.551 40.7601C406.895 40.4401 407.887 39.9601 408.527 39.3201C409.167 38.6161 409.487 37.6241 409.487 36.3441C409.487 34.5521 408.847 33.0161 407.567 31.7361C406.287 30.4561 404.271 29.8161 401.519 29.8161C399.663 29.8161 397.935 30.1361 396.335 30.7761C394.799 31.4161 393.455 32.3761 392.303 33.6561C391.215 34.9361 390.415 36.5681 389.903 38.5521L377.711 34.8081C378.479 32.1841 379.567 29.9121 380.975 27.9921C382.447 26.0721 384.207 24.4721 386.255 23.1921C388.303 21.8481 390.639 20.8561 393.263 20.2161C395.887 19.5761 398.735 19.2561 401.807 19.2561C406.735 19.2561 410.735 20.0561 413.807 21.6561C416.943 23.1921 419.279 25.6241 420.815 28.9521C422.351 32.2161 423.119 36.4401 423.119 41.6241V50.2641C423.119 52.5041 423.151 54.7761 423.215 57.0801C423.343 59.3841 423.471 61.7201 423.599 64.0881C423.791 66.3921 423.983 68.6961 424.175 71.0001H411.983C411.727 69.4001 411.471 67.5761 411.215 65.5281C411.023 63.4161 410.863 61.3041 410.735 59.1921H409.007C408.111 61.6241 406.831 63.8321 405.167 65.8161C403.503 67.8001 401.455 69.4001 399.023 70.6161C396.655 71.7681 393.935 72.3441 390.863 72.3441ZM396.719 62.3601C397.935 62.3601 399.151 62.1361 400.367 61.6881C401.647 61.2401 402.863 60.6321 404.015 59.8641C405.231 59.0321 406.319 58.0081 407.279 56.7921C408.303 55.5761 409.135 54.2001 409.775 52.6641L409.583 44.6001L411.791 45.0801C410.639 45.9121 409.295 46.5841 407.759 47.0961C406.223 47.5441 404.623 47.8961 402.959 48.1521C401.359 48.4081 399.759 48.6961 398.159 49.0161C396.559 49.3361 395.119 49.7521 393.839 50.2641C392.623 50.7761 391.631 51.4801 390.863 52.3761C390.159 53.2081 389.807 54.3921 389.807 55.9281C389.807 57.9121 390.447 59.4801 391.727 60.6321C393.007 61.7841 394.671 62.3601 396.719 62.3601Z" fill="white"/>
<path d="M317.836 87.1281V46.2321V20.6001H329.26L329.356 34.6161L331.084 34.7121C331.66 31.3201 332.652 28.4721 334.06 26.1681C335.532 23.8641 337.42 22.1361 339.724 20.9841C342.028 19.8321 344.684 19.2561 347.692 19.2561C352.172 19.2561 356.012 20.3761 359.212 22.6161C362.412 24.7921 364.844 27.8961 366.508 31.9281C368.236 35.8961 369.1 40.6001 369.1 46.0401C369.1 51.0961 368.332 55.6081 366.796 59.5761C365.26 63.4801 362.956 66.5841 359.884 68.8881C356.876 71.1921 353.1 72.3441 348.556 72.3441C345.356 72.3441 342.636 71.7361 340.396 70.5201C338.22 69.3041 336.396 67.6081 334.924 65.4321C333.516 63.1921 332.332 60.5361 331.372 57.4641H329.548C329.932 59.1921 330.284 60.9521 330.604 62.7441C330.924 64.5361 331.18 66.2961 331.372 68.0241C331.564 69.6881 331.66 71.3201 331.66 72.9201V87.1281H317.836ZM343.756 61.3041C346.06 61.3041 348.012 60.6641 349.612 59.3841C351.212 58.1041 352.428 56.3121 353.26 54.0081C354.156 51.7041 354.604 49.0801 354.604 46.1361C354.604 42.9361 354.156 40.2161 353.26 37.9761C352.364 35.6721 351.084 33.8801 349.42 32.6001C347.756 31.3201 345.772 30.6801 343.468 30.6801C341.42 30.6801 339.66 31.1281 338.188 32.0241C336.716 32.9201 335.468 34.1041 334.444 35.5761C333.484 37.0481 332.78 38.6481 332.332 40.3761C331.884 42.0401 331.66 43.6401 331.66 45.1761V47.0001C331.66 48.2161 331.82 49.4961 332.14 50.8401C332.46 52.1201 332.972 53.4001 333.676 54.6801C334.38 55.8961 335.212 57.0161 336.172 58.0401C337.132 59.0001 338.252 59.8001 339.532 60.4401C340.812 61.0161 342.22 61.3041 343.756 61.3041Z" fill="white"/>
<path d="M282.184 72.3441C277.128 72.3441 272.68 71.3521 268.84 69.3681C265 67.3201 261.992 64.3441 259.816 60.4401C257.64 56.4721 256.552 51.5441 256.552 45.6561C256.552 39.7681 257.64 34.8721 259.816 30.9681C262.056 27.0641 265.096 24.1521 268.936 22.2321C272.84 20.2481 277.256 19.2561 282.184 19.2561C287.24 19.2561 291.688 20.2481 295.528 22.2321C299.432 24.2161 302.472 27.1921 304.648 31.1601C306.888 35.0641 308.008 39.9601 308.008 45.8481C308.008 51.8001 306.856 56.7601 304.552 60.7281C302.312 64.6321 299.24 67.5441 295.336 69.4641C291.496 71.3841 287.112 72.3441 282.184 72.3441ZM282.664 62.0721C285.16 62.0721 287.24 61.4961 288.904 60.3441C290.632 59.1921 291.912 57.4641 292.744 55.1601C293.64 52.7921 294.088 49.9441 294.088 46.6161C294.088 43.0961 293.608 40.1201 292.648 37.6881C291.752 35.1921 290.408 33.3041 288.616 32.0241C286.824 30.6801 284.552 30.0081 281.8 30.0081C279.432 30.0081 277.384 30.5841 275.656 31.7361C273.928 32.8241 272.616 34.5521 271.72 36.9201C270.824 39.2241 270.376 42.0721 270.376 45.4641C270.376 50.9041 271.464 55.0321 273.64 57.8481C275.816 60.6641 278.824 62.0721 282.664 62.0721Z" fill="white"/>
<path d="M232.992 71.0001V2.36011H246.624V71.0001H232.992Z" fill="white"/>
<path d="M191.367 71V46.616V20.6H202.791L202.887 37.784H204.711C205.223 33.496 206.087 30.008 207.303 27.32C208.583 24.632 210.343 22.648 212.583 21.368C214.823 20.088 217.607 19.448 220.935 19.448C221.511 19.448 222.119 19.48 222.759 19.544C223.463 19.544 224.263 19.64 225.159 19.832L224.583 34.52C223.623 34.072 222.567 33.752 221.415 33.56C220.263 33.368 219.239 33.272 218.343 33.272C215.847 33.272 213.703 33.848 211.911 35C210.119 36.152 208.647 37.816 207.495 39.992C206.407 42.104 205.671 44.696 205.287 47.768V71H191.367Z" fill="white"/>
<path d="M119.728 70.9999L141.424 7.63989H161.584L183.28 70.9999H168.304L152.272 18.5839H150.832L134.704 70.9999H119.728ZM131.92 58.5199V49.1119H173.104V58.5199H131.92Z" fill="white"/>
<path fill-rule="evenodd" clip-rule="evenodd" d="M64.2735 0C72.959 0 80 7.04099 80 15.7265V64.2735C80 72.959 72.959 80 64.2735 80H15.7265C7.04099 80 1.37671e-07 72.959 0 64.2735V15.7265C0 7.04099 7.04099 1.37662e-07 15.7265 0H64.2735ZM56.7521 9.57265C49.1995 9.57265 43.0769 15.6953 43.0769 23.2479C43.0769 30.8005 49.1995 36.9231 56.7521 36.9231C64.3048 36.9231 70.4274 30.8005 70.4274 23.2479C70.4274 15.6953 64.3048 9.57265 56.7521 9.57265Z" fill="#DB4D12"/>
</svg>
