<svg width="64" height="64" viewBox="0 0 64 64" fill="none" xmlns="http://www.w3.org/2000/svg">
<path d="M32 0C49.6731 0 64 14.3269 64 32V64H32C14.3269 64 0 49.6731 0 32C9.66449e-08 14.3269 14.3269 9.66391e-08 32 0ZM32 12.3428C21.1437 12.3428 12.3428 21.1437 12.3428 32C12.3428 42.8563 21.1437 51.6572 32 51.6572H51.6572V32C51.6572 21.1437 42.8563 12.3428 32 12.3428Z" fill="#C2410C"/>
<circle cx="31.8622" cy="31.8621" r="9.6" transform="rotate(-45 31.8622 31.8621)" fill="#C2410C"/>
<path d="M32.5087 38.3271L35.4179 35.4178L53.5198 53.5198L47.3781 59.6615L32.5087 38.3271Z" fill="#C2410C"/>
<path d="M38.3271 32.5086L35.4179 35.4179L53.5198 53.5198L59.6616 47.3781L38.3271 32.5086Z" fill="#C2410C"/>
</svg>
