<svg width="493" height="81" viewBox="0 0 493 81" fill="none" xmlns="http://www.w3.org/2000/svg">
<path d="M33.5 0C52.0015 5.15408e-07 67 14.9985 67 33.5V67H33.5C14.9985 67 5.1544e-07 52.0015 0 33.5C0 14.9985 14.9985 0 33.5 0ZM33.5 12.9209C22.1348 12.9209 12.9219 22.1348 12.9219 33.5C12.9219 44.8652 22.1348 54.0781 33.5 54.0781H54.0781V33.5C54.0781 22.1348 44.8652 12.9209 33.5 12.9209Z" fill="#C2410C"/>
<circle cx="33.3557" cy="33.3557" r="10.05" transform="rotate(-45 33.3557 33.3557)" fill="#C2410C"/>
<path d="M34.0325 40.1236L37.0781 37.0779L56.0286 56.0284L49.599 62.458L34.0325 40.1236Z" fill="#C2410C"/>
<path d="M40.1237 34.0324L37.0781 37.0781L56.0286 56.0285L62.4582 49.5989L40.1237 34.0324Z" fill="#C2410C"/>
<path d="M471.861 67.8195C467.06 67.8195 463.018 67.1206 459.737 65.7227C456.516 64.3249 454.024 62.3801 452.261 59.8883C450.499 57.3965 449.496 54.5705 449.253 51.4102L461.195 50.8632C461.621 53.4158 462.684 55.391 464.386 56.7888C466.088 58.1866 468.61 58.8855 471.952 58.8855C474.687 58.8855 476.814 58.4601 478.334 57.6093C479.914 56.6976 480.704 55.2998 480.704 53.4158C480.704 52.3218 480.431 51.4102 479.884 50.6809C479.337 49.9516 478.303 49.3134 476.784 48.7665C475.265 48.2195 473.016 47.6725 470.038 47.1255C465.054 46.2747 461.134 45.2415 458.278 44.026C455.422 42.7497 453.386 41.1696 452.17 39.2855C451.015 37.4015 450.438 35.0617 450.438 32.266C450.438 27.7079 452.17 24.031 455.634 21.2353C459.159 18.3789 464.295 16.9507 471.041 16.9507C475.417 16.9507 479.093 17.68 482.071 19.1386C485.049 20.5364 487.359 22.4812 489 24.973C490.702 27.404 491.765 30.1997 492.191 33.36L480.431 33.9069C480.127 32.266 479.58 30.8378 478.79 29.6223C478 28.4068 476.936 27.4952 475.599 26.8874C474.262 26.2189 472.682 25.8846 470.858 25.8846C468.124 25.8846 466.057 26.4316 464.659 27.5256C463.262 28.6195 462.563 30.0781 462.563 31.9014C462.563 33.1776 462.867 34.2412 463.474 35.0921C464.143 35.9429 465.206 36.6418 466.665 37.1888C468.124 37.675 470.068 38.1308 472.499 38.5562C477.604 39.3463 481.616 40.3795 484.533 41.6558C487.511 42.8713 489.608 44.4514 490.823 46.3962C492.099 48.2803 492.738 50.5593 492.738 53.2334C492.738 56.333 491.856 58.9767 490.094 61.1646C488.392 63.3525 485.961 65.0238 482.801 66.1785C479.701 67.2725 476.055 67.8195 471.861 67.8195Z" fill="white"/>
<path d="M422.096 67.8195C417.294 67.8195 413.253 67.1206 409.971 65.7227C406.75 64.3249 404.258 62.3801 402.496 59.8883C400.733 57.3965 399.73 54.5705 399.487 51.4102L411.43 50.8632C411.855 53.4158 412.919 55.391 414.62 56.7888C416.322 58.1866 418.844 58.8855 422.187 58.8855C424.922 58.8855 427.049 58.4601 428.568 57.6093C430.148 56.6976 430.938 55.2998 430.938 53.4158C430.938 52.3218 430.665 51.4102 430.118 50.6809C429.571 49.9516 428.538 49.3134 427.018 48.7665C425.499 48.2195 423.25 47.6725 420.272 47.1255C415.289 46.2747 411.369 45.2415 408.512 44.026C405.656 42.7497 403.62 41.1696 402.405 39.2855C401.25 37.4015 400.672 35.0617 400.672 32.266C400.672 27.7079 402.405 24.031 405.869 21.2353C409.394 18.3789 414.529 16.9507 421.275 16.9507C425.651 16.9507 429.328 17.68 432.306 19.1386C435.284 20.5364 437.593 22.4812 439.234 24.973C440.936 27.404 442 30.1997 442.425 33.36L430.665 33.9069C430.361 32.266 429.814 30.8378 429.024 29.6223C428.234 28.4068 427.17 27.4952 425.833 26.8874C424.496 26.2189 422.916 25.8846 421.093 25.8846C418.358 25.8846 416.292 26.4316 414.894 27.5256C413.496 28.6195 412.797 30.0781 412.797 31.9014C412.797 33.1776 413.101 34.2412 413.709 35.0921C414.377 35.9429 415.441 36.6418 416.899 37.1888C418.358 37.675 420.303 38.1308 422.734 38.5562C427.839 39.3463 431.85 40.3795 434.767 41.6558C437.745 42.8713 439.842 44.4514 441.058 46.3962C442.334 48.2803 442.972 50.5593 442.972 53.2334C442.972 56.333 442.091 58.9767 440.328 61.1646C438.627 63.3525 436.195 65.0238 433.035 66.1785C429.936 67.2725 426.289 67.8195 422.096 67.8195Z" fill="white"/>
<path d="M363.816 67.8195C358.772 67.8195 354.7 66.6647 351.601 64.3553C348.501 61.9851 346.951 58.7032 346.951 54.5097C346.951 50.3162 348.258 47.0344 350.871 44.6641C353.485 42.2939 357.465 40.5922 362.814 39.559L378.949 36.3683C378.949 32.9042 378.159 30.3212 376.579 28.6195C374.999 26.857 372.659 25.9758 369.56 25.9758C366.764 25.9758 364.546 26.6443 362.905 27.9814C361.325 29.2576 360.231 31.1113 359.623 33.5423L347.772 32.9953C348.744 27.8294 351.114 23.879 354.882 21.1442C358.65 18.3485 363.543 16.9507 369.56 16.9507C376.488 16.9507 381.715 18.7132 385.24 22.2381C388.825 25.7023 390.618 30.6859 390.618 37.1888V66.7255H380.59L380.043 55.5125L381.046 56.0595C380.56 58.3689 379.527 60.4049 377.947 62.1674C376.427 63.9299 374.452 65.3277 372.021 66.3609C369.59 67.3333 366.855 67.8195 363.816 67.8195ZM366.278 59.3413C368.891 59.3413 371.14 58.8248 373.024 57.7916C374.908 56.7584 376.366 55.3302 377.4 53.5069C378.433 51.6837 378.949 49.5262 378.949 47.0344V44.2995L366.369 46.8521C363.756 47.399 361.872 48.2195 360.717 49.3134C359.623 50.3466 359.076 51.7141 359.076 53.4158C359.076 55.2998 359.684 56.7584 360.899 57.7916C362.175 58.8248 363.968 59.3413 366.278 59.3413Z" fill="white"/>
<path d="M293.791 80.3999V18.0446H305.004L305.277 28.4372L304.092 27.8902C305.307 24.3045 307.283 21.6 310.017 19.7767C312.813 17.8927 316.065 16.9507 319.772 16.9507C324.391 16.9507 328.22 18.1054 331.258 20.4149C334.358 22.7243 336.667 25.7935 338.187 29.6223C339.706 33.4511 340.466 37.7054 340.466 42.3851C340.466 47.0648 339.676 51.319 338.096 55.1479C336.576 58.9767 334.267 62.0458 331.167 64.3553C328.128 66.6647 324.3 67.8195 319.681 67.8195C317.25 67.8195 314.971 67.3941 312.844 66.5432C310.777 65.6923 308.984 64.4768 307.465 62.8967C306.006 61.3165 304.973 59.4629 304.365 57.3358L305.459 56.4241V80.3999H293.791ZM316.946 58.3386C320.471 58.3386 323.236 56.9407 325.242 54.1451C327.308 51.2886 328.341 47.3686 328.341 42.3851C328.341 37.4015 327.308 33.5119 325.242 30.7163C323.236 27.8598 320.471 26.4316 316.946 26.4316C314.576 26.4316 312.54 27.0394 310.838 28.2549C309.136 29.4096 307.799 31.1721 306.827 33.5423C305.915 35.9125 305.459 38.8601 305.459 42.3851C305.459 45.91 305.915 48.8576 306.827 51.2279C307.738 53.5981 309.045 55.391 310.747 56.6065C312.509 57.7612 314.576 58.3386 316.946 58.3386Z" fill="white"/>
<path d="M260.901 67.8195C256.1 67.8195 251.876 66.7863 248.23 64.7199C244.644 62.5928 241.848 59.6148 239.843 55.786C237.898 51.9572 236.926 47.4902 236.926 42.3851C236.926 37.2192 237.898 32.7522 239.843 28.9842C241.848 25.1553 244.644 22.2077 248.23 20.1414C251.876 18.0142 256.1 16.9507 260.901 16.9507C265.703 16.9507 269.896 18.0142 273.482 20.1414C277.068 22.2077 279.833 25.1553 281.778 28.9842C283.783 32.7522 284.786 37.2192 284.786 42.3851C284.786 47.4902 283.783 51.9572 281.778 55.786C279.833 59.6148 277.068 62.5928 273.482 64.7199C269.896 66.7863 265.703 67.8195 260.901 67.8195ZM260.901 58.3386C264.67 58.3386 267.556 56.9407 269.562 54.1451C271.628 51.3494 272.661 47.4294 272.661 42.3851C272.661 37.4015 271.628 33.5119 269.562 30.7163C267.556 27.8598 264.67 26.4316 260.901 26.4316C257.133 26.4316 254.216 27.8598 252.15 30.7163C250.083 33.5119 249.05 37.4015 249.05 42.3851C249.05 47.4294 250.083 51.3494 252.15 54.1451C254.216 56.9407 257.133 58.3386 260.901 58.3386Z" fill="white"/>
<path d="M225.069 66.7255C221.544 66.7255 218.718 65.8139 216.591 63.9907C214.463 62.1674 213.4 59.2502 213.4 55.239V2H225.069V54.0539C225.069 55.2694 225.373 56.181 225.98 56.7888C226.649 57.3966 227.561 57.7004 228.715 57.7004H232.271V66.7255H225.069Z" fill="white"/>
<path d="M178.502 66.7256V18.0447H189.441L189.897 31.5368L188.894 31.3544C189.624 26.6747 190.991 23.3017 192.997 21.2354C195.063 19.1082 197.859 18.0447 201.384 18.0447H205.851V28.0726H201.292C198.801 28.0726 196.734 28.4372 195.093 29.1665C193.452 29.8958 192.207 31.0506 191.356 32.6307C190.566 34.1501 190.171 36.1557 190.171 38.6475V66.7256H178.502Z" fill="white"/>
<path d="M111 66.7255L134.338 2H148.833L172.17 66.7255H159.772L154.393 51.4102H128.777L123.398 66.7255H111ZM132.241 41.2911H150.929L141.631 13.9423L132.241 41.2911Z" fill="white"/>
</svg>
