<svg width="64" height="64" viewBox="0 0 64 64" fill="none" xmlns="http://www.w3.org/2000/svg">
<path fill-rule="evenodd" clip-rule="evenodd" d="M32 0.5C49.397 0.5 63.5 14.603 63.5 32V63.5H32C14.603 63.5 0.5 49.397 0.5 32C0.5 14.603 14.603 0.5 32 0.5ZM32 12.6495C21.3133 12.6495 12.6504 21.3133 12.6504 32C12.6504 42.6867 21.3133 51.3496 32 51.3496H41.6463L34.4077 40.9641C31.2302 41.849 27.6816 41.0447 25.1828 38.5463C21.4924 34.8559 21.4916 28.8724 25.1819 25.1819C28.8723 21.4916 34.8558 21.4918 38.5463 25.1819C41.0447 27.6805 41.8488 31.2294 40.9641 34.4068L51.3496 41.6454V32C51.3496 21.3133 42.6867 12.6495 32 12.6495Z" fill="#C2410C"/>
</svg>
